<svg width="128" height="135" viewBox="0 0 128 135" fill="none" xmlns="http://www.w3.org/2000/svg">
<rect x="0.5" y="0.5" width="127" height="127" rx="7.5" fill="#414042" stroke="white"/>
<g filter="url(#filter0_d_14_17)">
<path d="M41.1895 102.105L26.9105 110.349L28.6674 113.392L100.062 72.1722L95.2623 70.8861L47.2756 98.5913L43.7618 92.5051L38.9618 91.219L37.6756 96.019L41.1895 102.105Z" fill="#3179AE" stroke="#3179AE"/>
<path d="M44.9736 108.659L30.6946 116.903L28.9377 113.86L100.333 72.6404L99.0465 77.4404L51.0597 105.146L54.5735 111.232L53.2874 116.032L48.4874 114.745L44.9736 108.659Z" fill="#265B82" stroke="#265B82"/>
<path d="M87.8105 102.105L102.09 110.349L100.333 113.392L28.9377 72.1722L33.7377 70.8861L81.7244 98.5913L85.2382 92.5051L90.0382 91.219L91.3244 96.019L87.8105 102.105Z" fill="#3179AE" stroke="#3179AE"/>
<path d="M84.0264 108.659L98.3054 116.903L100.062 113.86L28.6674 72.6404L29.9535 77.4404L77.9403 105.146L74.4265 111.232L75.7126 116.032L80.5126 114.745L84.0264 108.659Z" fill="#265B82" stroke="#265B82"/>
</g>
<path d="M86.8995 57.0056C86.8995 57.0056 86.8231 56.5369 86.7785 56.5412L78.2751 57.3616C77.5985 57.427 77.073 57.9666 77.0255 58.6446L76.7919 61.9929L70.2133 62.4622L69.7658 59.4277C69.6661 58.7527 69.0767 58.2439 68.3945 58.2439H59.4196C58.7376 58.2439 58.1482 58.7527 58.0485 59.4277L57.6008 62.4622L51.0222 61.9929L50.7886 58.6446C50.7412 57.9663 50.2157 57.4267 49.539 57.3614L41.0314 56.5412C40.9875 56.5369 40.9553 57.006 40.9113 57.006L40.8998 58.8462L48.105 60.0081L48.3409 63.3863C48.3886 64.0702 48.9404 64.6232 49.6248 64.6723L58.685 65.3186C58.7193 65.3209 58.7531 65.3224 58.787 65.3224C59.4678 65.3224 60.0563 64.8133 60.1559 64.1383L60.6163 61.0159H67.198L67.6584 64.1383C67.7578 64.8131 68.347 65.3221 69.0288 65.3221C69.0622 65.3221 69.0955 65.3209 69.1282 65.3186L78.1895 64.6723C78.8737 64.6232 79.4257 64.0702 79.4734 63.3863L79.7091 60.0081L86.9112 58.841L86.8995 57.0056Z" fill="white"/>
<path d="M40.9112 43.1299V54.2965V55.7148V57.0056C40.9366 57.0058 40.962 57.0067 40.9871 57.0091L49.4938 57.8293C49.9394 57.8723 50.2886 58.2309 50.3197 58.6775L50.5819 62.4326L58.0024 62.9621L58.5135 59.4963C58.5798 59.0469 58.9652 58.7139 59.4198 58.7139H68.3946C68.8489 58.7139 69.2343 59.0469 69.3006 59.4963L69.8118 62.9621L77.2324 62.4326L77.4945 58.6775C77.5257 58.2309 77.8747 57.8725 78.3203 57.8293L86.8237 57.0091C86.8489 57.0067 86.874 57.0058 86.8994 57.0056V55.8984L86.9029 55.8972V43.1299C88.1008 41.6219 89.235 39.9585 90.1041 38.559C88.776 36.2982 87.1487 34.2777 85.4094 32.4058C83.7962 33.2178 82.2294 34.1377 80.7495 35.1165C80.0089 34.3804 79.1748 33.7783 78.3556 33.1489C77.5506 32.5024 76.6435 32.0284 75.7831 31.4761C76.0392 29.5685 76.1659 27.6904 76.2169 25.7304C73.9969 24.6131 71.6296 23.8723 69.235 23.3403C68.279 24.9471 67.4047 26.6871 66.6433 28.3882C65.7403 28.2373 64.8331 28.1814 63.9248 28.1706V28.1692C63.9185 28.1692 63.9126 28.1706 63.9072 28.1706C63.9015 28.1706 63.8957 28.1692 63.89 28.1692V28.1706C62.98 28.1814 62.0736 28.2373 61.1704 28.3882C60.4094 26.6871 59.5356 24.9471 58.5782 23.3403C56.1847 23.8723 53.8172 24.6131 51.5974 25.7304C51.6482 27.6904 51.7749 29.5685 52.0318 31.4761C51.1697 32.0284 50.2637 32.5024 49.4586 33.1489C48.6405 33.7783 47.805 34.3804 47.0642 35.1165C45.5843 34.1377 44.0179 33.2178 42.4043 32.4058C40.6649 34.2777 39.0386 36.2982 37.71 38.559C38.7541 40.198 39.8741 41.8453 40.9112 43.1299Z" fill="#478CBF"/>
<path d="M79.268 59.5785L79.0045 63.3535C78.9728 63.8085 78.6109 64.1707 78.1559 64.2034L69.0948 64.8499C69.0727 64.8515 69.0506 64.8523 69.0287 64.8523C68.5784 64.8523 68.19 64.5218 68.1234 64.0696L67.6038 60.5458H60.2104L59.6908 64.0696C59.621 64.5439 59.197 64.8849 58.7195 64.8499L49.6584 64.2034C49.2034 64.1707 48.8415 63.8085 48.8097 63.3535L48.5463 59.5785L40.8972 58.841C40.9007 59.6631 40.9113 60.5637 40.9113 60.743C40.9113 68.8215 51.1592 72.7044 63.8915 72.7491H63.907H63.9228C76.655 72.7044 86.8994 68.8215 86.8994 60.743C86.8994 60.5604 86.9105 59.6635 86.9143 58.841L79.268 59.5785Z" fill="#478CBF"/>
<path d="M56.9747 48.7625C56.9747 51.5949 54.6798 53.8894 51.8483 53.8894C49.0182 53.8894 46.7226 51.5949 46.7226 48.7625C46.7226 45.9319 49.0182 43.6386 51.8483 43.6386C54.6798 43.6386 56.9747 45.9319 56.9747 48.7625Z" fill="white"/>
<path d="M55.7412 49.0666C55.7412 50.9453 54.2185 52.468 52.3384 52.468C50.4592 52.468 48.9356 50.9453 48.9356 49.0666C48.9356 47.1878 50.4592 45.6638 52.3384 45.6638C54.2185 45.6638 55.7412 47.1878 55.7412 49.0666Z" fill="#414042"/>
<path d="M63.9067 54.3558C62.9953 54.3558 62.2566 53.6841 62.2566 52.8562V48.1368C62.2566 47.3095 62.9953 46.6371 63.9067 46.6371C64.8181 46.6371 65.5584 47.3095 65.5584 48.1368V52.8562C65.5584 53.6841 64.8181 54.3558 63.9067 54.3558Z" fill="white"/>
<path d="M70.8395 48.7625C70.8395 51.5949 73.1345 53.8894 75.9664 53.8894C78.7963 53.8894 81.0917 51.5949 81.0917 48.7625C81.0917 45.9319 78.7963 43.6386 75.9664 43.6386C73.1345 43.6386 70.8395 45.9319 70.8395 48.7625Z" fill="white"/>
<path d="M72.0733 49.0666C72.0733 50.9453 73.5955 52.468 75.4743 52.468C77.3549 52.468 78.8771 50.9453 78.8771 49.0666C78.8771 47.1878 77.3549 45.6638 75.4743 45.6638C73.5955 45.6638 72.0733 47.1878 72.0733 49.0666Z" fill="#414042"/>
<defs>
<filter id="filter0_d_14_17" x="17.6397" y="60" width="93.7205" height="74.0325" filterUnits="userSpaceOnUse" color-interpolation-filters="sRGB">
<feFlood flood-opacity="0" result="BackgroundImageFix"/>
<feColorMatrix in="SourceAlpha" type="matrix" values="0 0 0 0 0 0 0 0 0 0 0 0 0 0 0 0 0 0 127 0" result="hardAlpha"/>
<feOffset dy="4"/>
<feGaussianBlur stdDeviation="2"/>
<feComposite in2="hardAlpha" operator="out"/>
<feColorMatrix type="matrix" values="0 0 0 0 0 0 0 0 0 0 0 0 0 0 0 0 0 0 0.25 0"/>
<feBlend mode="normal" in2="BackgroundImageFix" result="effect1_dropShadow_14_17"/>
<feBlend mode="normal" in="SourceGraphic" in2="effect1_dropShadow_14_17" result="shape"/>
</filter>
</defs>
</svg>
